<mxfile host="drawio-plugin" modified="2024-12-30T22:08:08.097Z" agent="Mozilla/5.0 (Windows NT 10.0; Win64; x64) AppleWebKit/537.36 (KHTML, like Gecko) Chrome/122.0.0.0 Safari/537.36" etag="e18OwEsprxht50w9p24z" version="22.1.22" type="embed">
  <diagram id="Us82pt0M0TMXCUUHgqrs" name="Page-1">
    <mxGraphModel dx="953" dy="741" grid="1" gridSize="10" guides="1" tooltips="1" connect="1" arrows="1" fold="1" page="1" pageScale="1" pageWidth="850" pageHeight="1100" math="0" shadow="0">
      <root>
        <mxCell id="0" />
        <mxCell id="1" parent="0" />
        <mxCell id="34" style="edgeStyle=orthogonalEdgeStyle;rounded=0;orthogonalLoop=1;jettySize=auto;html=1;exitX=0.5;exitY=1;exitDx=0;exitDy=0;" parent="1" edge="1">
          <mxGeometry relative="1" as="geometry">
            <mxPoint x="230" y="276" as="sourcePoint" />
            <mxPoint x="230" y="276" as="targetPoint" />
          </mxGeometry>
        </mxCell>
        <mxCell id="81" value="&amp;lt;&amp;lt;component&amp;gt;&amp;gt;&lt;br&gt;Server" style="whiteSpace=wrap;html=1;verticalAlign=top;" parent="1" vertex="1">
          <mxGeometry x="1000" y="180" width="620" height="900" as="geometry" />
        </mxCell>
        <mxCell id="3" value="&lt;b style=&quot;background-color: initial;&quot;&gt;Infrastructure&lt;br&gt;&lt;br&gt;&lt;/b&gt;" style="html=1;dropTarget=0;whiteSpace=wrap;aspect=fixed;container=1;align=center;horizontal=1;verticalAlign=top;" parent="1" vertex="1">
          <mxGeometry x="1137.31" y="270.56" width="385.37" height="134.88" as="geometry">
            <mxRectangle x="1160" y="270.56" width="110" height="30" as="alternateBounds" />
          </mxGeometry>
        </mxCell>
        <mxCell id="4" value="Interface Adapters&lt;br&gt;" style="html=1;dropTarget=0;whiteSpace=wrap;aspect=fixed;container=1;align=center;horizontal=1;verticalAlign=top;" parent="1" vertex="1">
          <mxGeometry x="1142.68" y="470" width="380" height="133" as="geometry" />
        </mxCell>
        <mxCell id="83" value="Application Services" style="html=1;dropTarget=0;whiteSpace=wrap;aspect=fixed;container=1;align=center;horizontal=1;verticalAlign=top;" parent="1" vertex="1">
          <mxGeometry x="1142.68" y="657" width="380" height="133" as="geometry" />
        </mxCell>
        <mxCell id="84" value="Domain" style="html=1;dropTarget=0;whiteSpace=wrap;aspect=fixed;container=1;align=center;horizontal=1;verticalAlign=top;" parent="1" vertex="1">
          <mxGeometry x="1050" y="856.5" width="490" height="171.5" as="geometry" />
        </mxCell>
        <mxCell id="73" value="Routes" style="rounded=0;whiteSpace=wrap;html=1;" parent="1" vertex="1">
          <mxGeometry x="1190" y="316" width="120" height="60" as="geometry" />
        </mxCell>
        <mxCell id="85" value="Persistence" style="rounded=0;whiteSpace=wrap;html=1;" parent="1" vertex="1">
          <mxGeometry x="1380" y="316" width="120" height="60" as="geometry" />
        </mxCell>
        <mxCell id="86" value="Repositories" style="rounded=0;whiteSpace=wrap;html=1;" parent="1" vertex="1">
          <mxGeometry x="1390" y="525" width="120" height="60" as="geometry" />
        </mxCell>
        <mxCell id="87" value="Controllers" style="rounded=0;whiteSpace=wrap;html=1;" parent="1" vertex="1">
          <mxGeometry x="1180" y="520" width="120" height="60" as="geometry" />
        </mxCell>
        <mxCell id="88" value="Services" style="rounded=0;whiteSpace=wrap;html=1;" parent="1" vertex="1">
          <mxGeometry x="1240" y="710" width="120" height="60" as="geometry" />
        </mxCell>
        <mxCell id="89" value="Entities" style="rounded=0;whiteSpace=wrap;html=1;" parent="1" vertex="1">
          <mxGeometry x="1060" y="930" width="100" height="40" as="geometry" />
        </mxCell>
        <mxCell id="90" value="Value Objects" style="rounded=0;whiteSpace=wrap;html=1;" parent="1" vertex="1">
          <mxGeometry x="1300" y="890" width="100" height="40" as="geometry" />
        </mxCell>
        <mxCell id="91" value="Repository Interfaces" style="rounded=0;whiteSpace=wrap;html=1;" parent="1" vertex="1">
          <mxGeometry x="1422.68" y="910" width="100" height="40" as="geometry" />
        </mxCell>
        <mxCell id="92" value="" style="endArrow=none;dashed=1;html=1;dashPattern=1 3;strokeWidth=2;rounded=0;entryX=0.57;entryY=1.005;entryDx=0;entryDy=0;entryPerimeter=0;exitX=0.75;exitY=0;exitDx=0;exitDy=0;startArrow=open;startFill=0;" parent="1" source="89" target="88" edge="1">
          <mxGeometry width="50" height="50" relative="1" as="geometry">
            <mxPoint x="1200" y="850" as="sourcePoint" />
            <mxPoint x="1250" y="800" as="targetPoint" />
          </mxGeometry>
        </mxCell>
        <mxCell id="93" value="" style="endArrow=none;dashed=1;html=1;dashPattern=1 3;strokeWidth=2;rounded=0;entryX=0.75;entryY=1;entryDx=0;entryDy=0;exitX=0.25;exitY=0;exitDx=0;exitDy=0;startArrow=open;startFill=0;" parent="1" source="90" target="88" edge="1">
          <mxGeometry width="50" height="50" relative="1" as="geometry">
            <mxPoint x="1215" y="930" as="sourcePoint" />
            <mxPoint x="1258" y="780" as="targetPoint" />
          </mxGeometry>
        </mxCell>
        <mxCell id="94" value="" style="endArrow=none;dashed=1;html=1;dashPattern=1 3;strokeWidth=2;rounded=0;entryX=0.943;entryY=1.052;entryDx=0;entryDy=0;exitX=0.25;exitY=0;exitDx=0;exitDy=0;entryPerimeter=0;endFill=0;startArrow=open;startFill=0;" parent="1" source="91" target="88" edge="1">
          <mxGeometry width="50" height="50" relative="1" as="geometry">
            <mxPoint x="1295" y="930" as="sourcePoint" />
            <mxPoint x="1280" y="780" as="targetPoint" />
          </mxGeometry>
        </mxCell>
        <mxCell id="95" value="" style="endArrow=none;dashed=1;html=1;dashPattern=1 3;strokeWidth=2;rounded=0;entryX=0.5;entryY=1;entryDx=0;entryDy=0;exitX=0.5;exitY=0;exitDx=0;exitDy=0;startArrow=open;startFill=0;" parent="1" source="88" target="87" edge="1">
          <mxGeometry width="50" height="50" relative="1" as="geometry">
            <mxPoint x="1245" y="730" as="sourcePoint" />
            <mxPoint x="1230" y="580" as="targetPoint" />
          </mxGeometry>
        </mxCell>
        <mxCell id="96" value="" style="endArrow=none;dashed=1;html=1;dashPattern=1 3;strokeWidth=2;rounded=0;entryX=0.667;entryY=1;entryDx=0;entryDy=0;exitX=0.5;exitY=0;exitDx=0;exitDy=0;startArrow=open;startFill=0;entryPerimeter=0;" parent="1" source="91" target="86" edge="1">
          <mxGeometry width="50" height="50" relative="1" as="geometry">
            <mxPoint x="1250" y="720" as="sourcePoint" />
            <mxPoint x="1250" y="590" as="targetPoint" />
          </mxGeometry>
        </mxCell>
        <mxCell id="97" value="" style="endArrow=none;dashed=1;html=1;dashPattern=1 3;strokeWidth=2;rounded=0;entryX=0.5;entryY=0;entryDx=0;entryDy=0;exitX=0.594;exitY=1.048;exitDx=0;exitDy=0;startArrow=open;startFill=0;exitPerimeter=0;" parent="1" source="85" target="86" edge="1">
          <mxGeometry width="50" height="50" relative="1" as="geometry">
            <mxPoint x="1280" y="720" as="sourcePoint" />
            <mxPoint x="1430" y="595" as="targetPoint" />
          </mxGeometry>
        </mxCell>
        <mxCell id="98" value="" style="endArrow=none;dashed=1;html=1;dashPattern=1 3;strokeWidth=2;rounded=0;entryX=0.5;entryY=0;entryDx=0;entryDy=0;exitX=0.594;exitY=1.048;exitDx=0;exitDy=0;startArrow=open;startFill=0;exitPerimeter=0;" parent="1" edge="1">
          <mxGeometry width="50" height="50" relative="1" as="geometry">
            <mxPoint x="1240.5" y="376" as="sourcePoint" />
            <mxPoint x="1239.5" y="522" as="targetPoint" />
          </mxGeometry>
        </mxCell>
        <mxCell id="99" value="Services&lt;br&gt;Interfaces" style="rounded=0;whiteSpace=wrap;html=1;" vertex="1" parent="1">
          <mxGeometry x="1185" y="950" width="110" height="32.25" as="geometry" />
        </mxCell>
        <mxCell id="101" value="" style="endArrow=none;dashed=1;html=1;dashPattern=1 3;strokeWidth=2;rounded=0;entryX=0.667;entryY=0.967;entryDx=0;entryDy=0;exitX=0.5;exitY=0;exitDx=0;exitDy=0;startArrow=open;startFill=0;entryPerimeter=0;" edge="1" parent="1" source="99" target="88">
          <mxGeometry width="50" height="50" relative="1" as="geometry">
            <mxPoint x="1335" y="900" as="sourcePoint" />
            <mxPoint x="1340" y="780" as="targetPoint" />
          </mxGeometry>
        </mxCell>
      </root>
    </mxGraphModel>
  </diagram>
</mxfile>
